<svg width="160" height="143" viewBox="0 0 160 143" fill="none" xmlns="http://www.w3.org/2000/svg">
<path d="M70.7458 47.663C66.8085 48.792 64.5267 52.9084 65.6204 56.7227L86.9658 131.163C88.0948 135.1 92.2112 137.382 96.1485 136.253L152.132 120.2C156.07 119.071 158.351 114.954 157.222 111.017L135.877 36.5769C134.748 32.6396 130.667 30.4809 126.73 31.6099L116.517 34.5383L117.646 38.4756C118.775 42.4129 116.493 46.5293 112.556 47.6583L91.1469 53.7973C87.2096 54.9263 83.0932 52.6446 81.9642 48.7073L80.8352 44.7699L70.7458 47.663Z" fill="#6684FF"/>
<path d="M81.6028 38.1583L84.4253 48.0017C85.1662 50.5855 87.8577 52.0775 90.4416 51.3365L111.974 45.1623C114.558 44.4213 116.05 41.7299 115.309 39.146L112.486 29.3027C111.745 26.7188 109.054 25.2269 106.47 25.9678L104.255 26.6029C104.22 26.4798 104.185 26.3568 104.149 26.2337C102.773 21.4351 97.8653 18.7146 93.0667 20.0905C88.2681 21.4665 85.5475 26.3745 86.9235 31.1732C86.9588 31.2962 86.9941 31.4192 87.0294 31.5423L84.8146 32.1773C82.3891 33.006 80.8971 35.6975 81.6028 38.1583ZM94.5133 25.1352C96.605 24.5354 98.6632 25.6763 99.2982 27.8911C99.3335 28.0141 99.3335 28.0141 99.3688 28.1372L91.9863 30.2541C91.951 30.131 91.9157 30.008 91.8805 29.8849C91.316 27.9163 92.4215 25.735 94.5133 25.1352Z" fill="#6684FF"/>
<path d="M40.5397 35.6099C36.6024 34.4809 32.486 36.7627 31.3923 40.577L10.0469 115.017C8.9179 118.954 11.1997 123.071 15.137 124.2L71.1209 140.253C75.0582 141.382 79.1746 139.1 80.3036 135.163L101.649 60.7227C102.778 56.7854 100.461 52.7921 96.5236 51.6631L86.3112 48.7347L85.1821 52.672C84.0531 56.6093 79.9367 58.8911 75.9994 57.7621L54.5902 51.6231C50.6529 50.4941 48.3711 46.3777 49.5001 42.4403L50.6291 38.503L40.5397 35.6099Z" fill="#FBBE37"/>
<path d="M54.783 33.3026L51.9604 43.1459C51.2195 45.7298 52.7114 48.4213 55.2953 49.1622L76.8276 55.3365C79.4114 56.0774 82.1029 54.5855 82.8439 52.0016L85.6664 42.1583C86.4073 39.5744 84.9154 36.8829 82.3315 36.142L80.1168 35.507C80.152 35.3839 80.1873 35.2609 80.2226 35.1378C81.5986 30.3392 78.878 25.4312 74.0794 24.0552C69.2808 22.6792 64.3728 25.3998 62.9968 30.1984C62.9615 30.3215 62.9262 30.4445 62.8909 30.5675L60.6762 29.9325C58.1801 29.3499 55.4886 30.8418 54.783 33.3026ZM72.6329 29.0999C74.7246 29.6997 75.8654 31.7579 75.2304 33.9727C75.1951 34.0957 75.1951 34.0957 75.1598 34.2187L67.7773 32.1018C67.8126 31.9788 67.8479 31.8558 67.8832 31.7327C68.4477 29.7641 70.5412 28.5001 72.6329 29.0999Z" fill="#FBBE37"/>
<path d="M54.424 45.3521C50.328 45.3521 47 48.6801 47 52.6481V130.088C47 134.184 50.328 137.512 54.424 137.512H112.664C116.76 137.512 120.088 134.184 120.088 130.088V52.6481C120.088 48.5521 116.76 45.3521 112.664 45.3521H102.04V49.4481C102.04 53.5441 98.712 56.8721 94.616 56.8721H72.344C68.248 56.8721 64.92 53.5441 64.92 49.4481V45.3521H54.424Z" fill="#3754DB" stroke="white" stroke-width="2"/>
<path d="M67.4805 39.208V49.448C67.4805 52.136 69.6565 54.312 72.3445 54.312H94.7445C97.4325 54.312 99.6085 52.136 99.6085 49.448V39.208C99.6085 36.52 97.4325 34.344 94.7445 34.344H92.4405C92.4405 34.216 92.4405 34.088 92.4405 33.96C92.4405 28.968 88.4725 25 83.4805 25C78.4885 25 74.5205 28.968 74.5205 33.96C74.5205 34.088 74.5205 34.216 74.5205 34.344H72.2165C69.6565 34.472 67.4805 36.648 67.4805 39.208ZM83.4805 30.248C85.6565 30.248 87.3205 31.912 87.3205 34.216C87.3205 34.344 87.3205 34.344 87.3205 34.472H79.6405C79.6405 34.344 79.6405 34.216 79.6405 34.088C79.6405 32.04 81.3045 30.248 83.4805 30.248Z" fill="#3754DB"/>
</svg>
